<?xml version="1.0"?>
<svg width="640" height="480" xmlns="http://www.w3.org/2000/svg" xmlns:svg="http://www.w3.org/2000/svg">
 <!-- Created with SVG-edit - http://svg-edit.googlecode.com/ -->
 <g>
  <title>Layer 1</title>
  <path fill="#f7eded" stroke="#bfb5b5" stroke-width="0" stroke-dasharray="null" stroke-linejoin="null" stroke-linecap="null" opacity="0" d="m40.5,24.91946l52.912758,0m-26.335526,22.711418l25.852348,25.369122m-25.852409,-25.610748l-24.16106,25.610725m24.040272,-55.812067l0,30.201342m8.031624,-38.357582c0,4.43577 -3.595886,8.03167 -8.031624,8.03167c-4.435791,0 -8.031681,-3.5959 -8.031681,-8.03167c0,-4.43577 3.595898,-8.03167 8.031681,-8.03167c4.435738,0 8.031624,3.5959 8.031624,8.03167z" id="svg_11"/>
  <path id="svg_1" d="m39.5,274.442932l146.979706,0m-73.153954,63.08725l71.81176,70.469818m-71.812363,-71.141022l-67.113777,71.1409m66.778503,-155.033447l0,83.892548m22.310173,-106.548798c0,12.321579 -9.988525,22.310181 -22.310173,22.310181c-12.321571,0 -22.310104,-9.988602 -22.310104,-22.310181c0,-12.321564 9.988533,-22.310181 22.310104,-22.310181c12.321648,0 22.310173,9.988617 22.310173,22.310181z" stroke-width="5" stroke="#000000" fill="#ffff56"/>
  <path stroke="#000000" id="svg_2" d="m347.423492,290.639648l138.734924,0m-69.049866,62.772034l67.783844,70.11731m-67.783844,-70.785339l-63.349274,70.785339m63.030945,-154.258698l0,83.473358m21.059753,-106.016312c0,12.260635 -9.42807,22.199081 -21.059753,22.199081c-11.630249,0 -21.056854,-9.938446 -21.056854,-22.199081c0,-12.259872 9.426605,-22.198334 21.056854,-22.198334c11.631683,0 21.059753,9.938461 21.059753,22.198334z" stroke-width="5" fill="#007fff"/>
  <path stroke="#000000" id="svg_3" d="m125.540985,68.60218l0,0c0,-9.37336 9.014648,-16.973167 20.134186,-16.973167l9.154129,0l0,0l43.931259,0l82.370911,0c5.341309,0 10.462616,1.787926 14.238007,4.971962c3.775269,3.183006 5.896332,7.500473 5.896332,12.001205l0,42.433556l0,0l0,25.460312l0,0c0,9.374496 -9.014709,16.973236 -20.134338,16.973236l-82.370911,0l-57.391632,43.159729l13.460373,-43.159729l-9.154129,0c-11.119537,0 -20.134186,-7.59874 -20.134186,-16.973236l0,0l0,-25.460312l0,0l0,-42.433556z" stroke-linecap="null" stroke-linejoin="null" stroke-dasharray="null" stroke-width="5" fill="#ffffaa"/>
  <path stroke="#000000" id="svg_4" d="m401.270996,92.635818l0,0c0,-8.733093 10.51709,-15.813202 23.488892,-15.813202l10.678802,0l0,0l51.250366,0l96.093597,0c6.227539,0 12.201904,1.665504 16.609375,4.633209c4.404846,2.964973 6.878967,6.987328 6.878967,11.179993l0,39.530899l0,0l0,23.717712l0,0c0,8.733017 -10.516296,15.813187 -23.488342,15.813187l-96.093597,0l-66.952606,40.204895l15.70224,-40.204895l-10.678802,0c-12.971802,0 -23.488892,-7.08017 -23.488892,-15.813187l0,0l0,-23.717712l0,0l0,-39.530899z" stroke-linecap="null" stroke-linejoin="null" stroke-dasharray="null" stroke-width="5" fill="#afcdea"/>
  <text style="cursor: move;" xml:space="preserve" text-anchor="middle" font-family="Cursive" font-size="24" id="svg_5" y="94.200012" x="213.800003" stroke-linecap="null" stroke-linejoin="null" stroke-dasharray="null" stroke-width="0" stroke="#000000" fill="#000000">Jag blir aldrig</text>
  <text stroke="#000000" transform="matrix(1.1798294505422577,0,0,1,139.5140859139707,0) " xml:space="preserve" text-anchor="middle" font-family="Cursive" font-size="24" id="svg_6" y="129.200012" x="62.540434" stroke-linecap="null" stroke-linejoin="null" stroke-dasharray="null" stroke-width="0" fill="#000000">pixelerad</text>
  <text stroke="#000000" transform="matrix(3.2578695542784777,0,0,1.7834580688407211,-2424.860578590228,-6.534676070170679) " xml:space="preserve" text-anchor="middle" font-family="Cursive" font-size="24" id="svg_7" y="79.073022" x="898.668832" stroke-linecap="null" stroke-linejoin="null" stroke-dasharray="null" stroke-width="0" fill="#000000">!?!??</text>
 </g>
</svg>